<svg id="Capa_1" enable-background="new 0 0 512 512" height="512" viewBox="0 0 512 512" width="512" xmlns="http://www.w3.org/2000/svg"><g><g><g><g><g><g><path d="m256 357.621c-25.846 0-46.873-21.027-46.873-46.873s21.027-46.873 46.873-46.873 46.873 21.027 46.873 46.873-21.027 46.873-46.873 46.873zm0-73.745c-14.818 0-26.873 12.055-26.873 26.873 0 14.817 12.055 26.873 26.873 26.873 14.817 0 26.873-12.055 26.873-26.873s-12.056-26.873-26.873-26.873z"/></g></g><g><g><path d="m316.59 249.62c-6.89.19-12.07-7.527-9.24-13.83 4.281-10.013 19.116-7.053 19.24 3.83.1 5.37-4.633 10.09-10 10z"/></g></g></g></g><g><path d="m479.971 33.171c-14.17 0-26.22 9.25-30.43 22.029h-150.548c-6.61-17.311-23.389-29.64-42.995-29.64-19.605 0-36.384 12.328-42.994 29.64h-150.545c-4.21-12.779-16.26-22.029-30.43-22.029-17.661 0-32.029 14.368-32.029 32.029 0 17.66 14.368 32.029 32.029 32.029 14.17 0 26.22-9.25 30.43-22.029h56.982c-6.508 4.285-12.656 9.223-18.359 14.779-22.505 21.927-35.576 51.022-36.938 82.112-14.86 4.294-25.759 18.021-25.759 34.247 0 19.652 15.988 35.641 35.64 35.641s35.641-15.988 35.641-35.641c0-16.132-10.773-29.794-25.503-34.172 2.799-53.689 48.115-96.966 102.14-96.966h23.839c1.861 23.67 21.717 42.361 45.857 42.361s43.996-18.691 45.858-42.361h23.838c53.972 0 99.332 43.291 102.138 96.951-14.756 4.361-25.554 18.036-25.554 34.187 0 19.652 15.988 35.641 35.641 35.641 19.652 0 35.641-15.988 35.641-35.641 0-16.206-10.873-29.92-25.707-34.232-1.36-31.144-14.473-60.287-37.035-82.222-5.676-5.518-11.792-10.424-18.264-14.685h56.986c4.21 12.779 16.26 22.029 30.43 22.029 17.661.001 32.029-14.368 32.029-32.028 0-17.661-14.368-32.029-32.029-32.029zm-447.942 44.058c-6.633 0-12.029-5.396-12.029-12.029s5.396-12.029 12.029-12.029 12.029 5.396 12.029 12.029-5.396 12.029-12.029 12.029zm57.637 129.109c0 8.624-7.016 15.641-15.641 15.641-8.624 0-15.64-7.016-15.64-15.641s7.016-15.641 15.64-15.641c8.625 0 15.641 7.016 15.641 15.641zm166.332-108.777c-14.336 0-26-11.664-26-26 0-14.337 11.664-26 26-26 14.337 0 26.001 11.664 26.001 26s-11.664 26-26.001 26zm197.562 108.777c0 8.624-7.017 15.641-15.641 15.641s-15.641-7.016-15.641-15.641 7.017-15.641 15.641-15.641 15.641 7.016 15.641 15.641zm26.411-129.109c-6.633 0-12.028-5.396-12.028-12.029s5.395-12.029 12.028-12.029 12.029 5.396 12.029 12.029-5.397 12.029-12.029 12.029z"/><path d="m343.985 269.102c-2.636-4.854-8.706-6.65-13.561-4.014-4.853 2.636-6.65 8.707-4.014 13.561l11.928 21.957c5.632 10.367 5.748 22.807.313 33.278l-28.504 54.916h-108.294l-28.506-54.915c-5.435-10.471-5.318-22.912.313-33.278l72.34-133.168v61.618c0 5.523 4.477 10 10 10 5.522 0 10-4.477 10-10v-61.617l20.183 37.153c2.636 4.854 8.706 6.65 13.561 4.014 4.853-2.636 6.65-8.708 4.014-13.561l-28.061-51.655c-1.75-3.221-5.121-5.227-8.787-5.227h-21.818c-3.665 0-7.038 2.005-8.787 5.227l-80.219 147.669c-8.805 16.211-8.988 35.665-.489 52.038l23.724 45.703h-2.783c-5.523 0-10 4.477-10 10s4.477 10 10 10h6.427l-16.293 65.214c-.747 2.987-.075 6.152 1.82 8.579s4.803 3.845 7.882 3.845h159.251c3.079 0 5.986-1.418 7.882-3.845 1.895-2.427 2.566-5.591 1.82-8.579l-16.293-65.214h6.429c5.522 0 10-4.477 10-10s-4.478-10-10-10h-2.782l23.723-45.703c8.5-16.374 8.317-35.828-.489-52.04zm-21.167 197.338h-133.64l14.401-57.638h104.838z"/></g></g></g></svg>