<svg id="Layer_1" enable-background="new 0 0 512.02 512.02" height="512" viewBox="0 0 512.02 512.02" width="512" xmlns="http://www.w3.org/2000/svg"><g id="XMLID_1011_"><g id="XMLID_217_"><path id="XMLID_218_" d="m112.01 44c-2.63 0-5.21 1.069-7.07 2.93s-2.93 4.439-2.93 7.07c0 2.63 1.069 5.21 2.93 7.069 1.86 1.86 4.44 2.931 7.07 2.931s5.21-1.07 7.069-2.931c1.86-1.859 2.931-4.439 2.931-7.069 0-2.631-1.07-5.21-2.931-7.07-1.859-1.861-4.439-2.93-7.069-2.93z"/><path id="XMLID_1591_" d="m64.01 44c-2.63 0-5.21 1.069-7.07 2.93s-2.93 4.439-2.93 7.07c0 2.63 1.069 5.21 2.93 7.069 1.86 1.861 4.44 2.931 7.07 2.931s5.21-1.07 7.069-2.931c1.86-1.859 2.931-4.439 2.931-7.069 0-2.631-1.07-5.21-2.931-7.07-1.859-1.861-4.439-2.93-7.069-2.93z"/><path id="XMLID_1675_" d="m160.01 44c-2.63 0-5.21 1.069-7.07 2.93s-2.93 4.439-2.93 7.07c0 2.63 1.069 5.21 2.93 7.069 1.86 1.86 4.44 2.931 7.07 2.931s5.21-1.07 7.069-2.931c1.86-1.859 2.931-4.439 2.931-7.069 0-2.631-1.07-5.21-2.931-7.07-1.859-1.861-4.439-2.93-7.069-2.93z"/><path id="XMLID_1676_" d="m245.592 360.02h-83.665c-5.522 0-10 4.478-10 10s4.478 10 10 10h83.665c5.522 0 10-4.478 10-10s-4.478-10-10-10z"/><path id="XMLID_1678_" d="m297.71 360.02c-2.641 0-5.21 1.07-7.07 2.93s-2.93 4.44-2.93 7.07 1.069 5.21 2.93 7.07c1.86 1.859 4.439 2.93 7.07 2.93 2.63 0 5.199-1.07 7.069-2.93 1.86-1.86 2.931-4.44 2.931-7.07s-1.07-5.21-2.931-7.07c-1.859-1.86-4.439-2.93-7.069-2.93z"/><path id="XMLID_1682_" d="m350.09 360.02c-2.63 0-5.21 1.07-7.07 2.93s-2.93 4.44-2.93 7.07 1.069 5.21 2.93 7.07c1.87 1.859 4.44 2.93 7.07 2.93s5.21-1.07 7.069-2.93c1.86-1.86 2.931-4.44 2.931-7.07s-1.07-5.21-2.931-7.07c-1.859-1.86-4.43-2.93-7.069-2.93z"/><path id="XMLID_1683_" d="m245.592 184.02h-83.665c-5.522 0-10 4.478-10 10s4.478 10 10 10h83.665c5.522 0 10-4.478 10-10s-4.478-10-10-10z"/><path id="XMLID_1686_" d="m297.71 184.02c-2.631 0-5.21 1.07-7.07 2.93s-2.93 4.44-2.93 7.07 1.069 5.21 2.93 7.07c1.86 1.859 4.439 2.93 7.07 2.93 2.63 0 5.21-1.07 7.069-2.93 1.86-1.86 2.931-4.44 2.931-7.07s-1.07-5.21-2.931-7.07c-1.859-1.86-4.439-2.93-7.069-2.93z"/><path id="XMLID_1726_" d="m350.09 184.02c-2.63 0-5.21 1.07-7.07 2.93s-2.93 4.44-2.93 7.07 1.069 5.21 2.93 7.07c1.86 1.859 4.44 2.93 7.07 2.93s5.21-1.07 7.069-2.93c1.86-1.86 2.931-4.44 2.931-7.07s-1.07-5.21-2.931-7.07c-1.859-1.86-4.43-2.93-7.069-2.93z"/><path id="XMLID_1727_" d="m245.592 272.02h-83.665c-5.522 0-10 4.478-10 10s4.478 10 10 10h83.665c5.522 0 10-4.478 10-10s-4.478-10-10-10z"/><path id="XMLID_1728_" d="m297.71 272.02c-2.641 0-5.21 1.07-7.07 2.93s-2.93 4.44-2.93 7.07 1.069 5.21 2.93 7.07c1.86 1.859 4.439 2.93 7.07 2.93 2.63 0 5.199-1.07 7.069-2.93 1.86-1.86 2.931-4.44 2.931-7.07s-1.07-5.21-2.931-7.07c-1.859-1.86-4.439-2.93-7.069-2.93z"/><path id="XMLID_1729_" d="m350.09 272.02c-2.63 0-5.21 1.07-7.07 2.93s-2.93 4.44-2.93 7.07 1.069 5.21 2.93 7.07c1.86 1.859 4.44 2.93 7.07 2.93s5.21-1.07 7.069-2.93c1.86-1.86 2.931-4.44 2.931-7.07s-1.07-5.21-2.931-7.07c-1.859-1.86-4.43-2.93-7.069-2.93z"/><path id="XMLID_1741_" d="m470.01 0h-428c-23.159 0-42 18.841-42 42v299.95c0 23.159 18.841 42 42 42h64v10.069c0 16.542 13.458 30 30 30h110v21.503c-10.719 3.305-19.192 11.778-22.497 22.497h-107.503c-5.522 0-10 4.478-10 10s4.478 10 10 10h107.503c4.28 13.883 17.228 24 32.497 24s28.217-10.117 32.497-24h107.503c5.522 0 10-4.478 10-10s-4.478-10-10-10h-107.503c-3.305-10.719-11.778-19.192-22.497-22.497v-21.502h110c16.542 0 30-13.458 30-30v-10.07h64c23.159 0 42-18.841 42-42v-299.95c0-23.159-18.841-42-42-42zm-214 492.02c-7.72 0-14-6.28-14-14s6.28-14 14-14 14 6.28 14 14-6.281 14-14 14zm-130-274v-48c0-5.514 4.486-10 10-10h240c5.514 0 10 4.486 10 10v48c0 5.514-4.486 10-10 10h-240c-5.514 0-10-4.487-10-10zm0 88v-48c0-5.514 4.486-10 10-10h240c5.514 0 10 4.486 10 10v48c0 5.514-4.486 10-10 10h-240c-5.514 0-10-4.487-10-10zm250 98h-240c-5.514 0-10-4.486-10-10v-48c0-5.514 4.486-10 10-10h240c5.514 0 10 4.486 10 10v48c0 5.513-4.487 10-10 10zm94-40.07h-64v-17.93c0-7.678-2.902-14.688-7.664-20 4.761-5.312 7.664-12.322 7.664-20v-48c0-7.678-2.902-14.688-7.664-20 4.761-5.312 7.664-12.322 7.664-20v-48c0-16.542-13.458-30-30-30h-240c-16.542 0-30 13.458-30 30v48c0 7.678 2.902 14.688 7.664 20-4.761 5.312-7.664 12.322-7.664 20v48c0 7.678 2.902 14.688 7.664 20-4.761 5.312-7.664 12.322-7.664 20v17.931h-64c-12.131 0-22-9.869-22-22v-233.951h191.001c5.522 0 10-4.478 10-10s-4.478-10-10-10h-191.001v-46c0-12.131 9.869-22 22-22h428c12.131 0 22 9.869 22 22v46h-190.999c-5.522 0-10 4.478-10 10s4.478 10 10 10h190.999v233.95c0 12.131-9.869 22-22 22z"/><path id="XMLID_1759_" d="m256.01 88c-2.63 0-5.21 1.069-7.07 2.93s-2.93 4.439-2.93 7.07c0 2.63 1.069 5.21 2.93 7.069 1.86 1.86 4.44 2.931 7.07 2.931s5.21-1.07 7.069-2.931c1.86-1.859 2.931-4.439 2.931-7.069 0-2.631-1.07-5.21-2.931-7.07-1.859-1.861-4.439-2.93-7.069-2.93z"/></g></g></svg>